PathFileType	4	(X/Y/Z)	C:\Users\86182\Documents\cortex\Trimmed_M3_L5.trc
DataRate	CameraRate	NumFrames	NumMarkers	Units	OrigDataRate	OrigDataStartFrame	OrigNumFrames
100.00	100.00	       70	2	mm	100.00	541	       901
Frame#	Time	gripper			box			
		X1	Y1	Z1	X2	Y2	Z2	

541	5.400	273.46722	149.81450	292.83694	274.68777	148.11615	157.27695	
542	5.410	273.49612	149.81258	292.82068	274.65671	148.16019	157.27498	
543	5.420	273.48059	149.81361	292.82941	274.69141	148.12239	157.25694	
544	5.430	273.50494	149.81198	292.81573	274.67783	148.12865	157.24966	
545	5.440	273.50494	149.81198	292.81573	274.68961	148.13283	157.25508	
546	5.450	273.50494	149.81198	292.81573	274.69424	148.12119	157.21898	
547	5.460	273.50494	149.81198	292.81573	274.68353	148.13753	157.27206	
548	5.470	273.50494	149.81198	292.81573	274.72995	148.10558	157.26216	
549	5.480	273.50494	149.81198	292.81573	274.68591	148.13213	157.26610	
550	5.490	273.50494	149.81198	292.81573	274.71225	148.11786	157.25392	
551	5.500	273.50494	149.81198	292.81573	274.67697	148.13857	157.27411	
552	5.510	273.50494	149.81198	292.81573	274.71735	148.10898	157.26839	
553	5.520	273.50494	149.81198	292.81573	274.70676	148.12756	157.26305	
554	5.530	273.50494	149.81198	292.81573	274.70346	148.11394	157.25853	
555	5.540	273.49829	149.81244	292.81946	274.67783	148.12865	157.24966	
556	5.550	273.48730	149.81316	292.82565	274.69693	148.11259	157.24774	
557	5.560	273.50494	149.81198	292.81573	274.71164	148.10875	157.26051	
558	5.570	273.50494	149.81198	292.81573	274.69717	148.11795	157.25336	
559	5.580	273.49170	149.81287	292.82318	274.71362	148.11211	157.26878	
560	5.590	273.50494	149.81198	292.81573	274.70792	148.10025	157.26778	
561	5.600	273.48285	149.81346	292.82816	274.70120	148.09369	157.26549	
562	5.610	273.50494	149.81198	292.81573	274.71777	148.10019	157.25420	
563	5.620	273.48285	149.81346	292.82816	274.70279	148.11281	157.25575	
564	5.630	273.49393	149.81273	292.82193	274.69138	148.10341	157.22501	
565	5.640	273.50494	149.81198	292.81573	274.70761	148.10193	157.24379	
566	5.650	273.50052	149.81229	292.81821	274.72394	148.10283	157.21574	
567	5.660	273.50494	149.81198	292.81573	274.70209	148.11169	157.25296	
568	5.670	273.50494	149.81198	292.81573	274.70880	148.08861	157.23265	
569	5.680	273.50494	149.81198	292.81573	274.71616	148.09201	157.23264	
570	5.690	273.52057	149.80472	292.81625	274.71814	148.09549	157.24107	
571	5.700	273.47839	149.81377	292.83066	274.71515	148.09560	157.24303	
572	5.710	273.50494	149.81044	292.81802	274.72406	148.09531	157.23718	
573	5.720	273.49829	149.81244	292.81946	274.69775	148.09526	157.25003	
574	5.730	273.50052	149.81229	292.81821	274.71875	148.09225	157.23972	
575	5.740	273.50946	149.80780	292.81900	274.71582	148.09674	157.24585	
576	5.750	273.50494	149.81198	292.81573	274.70517	148.10738	157.24977	
577	5.760	273.50494	149.81198	292.81573	274.68762	148.12022	157.21997	
578	5.770	273.50494	149.81198	292.81573	274.67258	148.12962	157.24440	
579	5.780	273.50494	149.81198	292.81573	274.64893	148.14061	157.19789	
580	5.790	273.50494	149.81198	292.81573	274.65829	148.14462	157.23955	
581	5.800	273.50494	149.81198	292.81573	274.68839	148.11668	157.20938	
582	5.810	273.49829	149.81244	292.81946	274.69800	148.10483	157.23605	
583	5.820	273.49170	149.81287	292.82318	274.64206	148.15694	157.25037	
584	5.830	273.49393	149.81273	292.82193	274.66290	148.15152	157.26855	
585	5.840	273.50494	149.81198	292.81573	274.69864	148.12477	157.27043	
586	5.850	273.46790	149.81429	292.83682	274.65125	148.15585	157.27824	
587	5.860	273.49612	149.81258	292.82068	274.67014	148.13510	157.25044	
588	5.870	273.49170	149.81287	292.82318	274.71201	148.10742	157.22476	
589	5.880	273.50494	149.81198	292.81573	274.67953	148.12202	157.24080	
590	5.890	273.50494	149.81198	292.81573	274.72626	148.10869	157.26254	
591	5.900	273.50494	149.81198	292.81573	274.72614	148.12080	157.25447	
592	5.910	273.50494	149.81198	292.81573	274.72473	148.11479	157.25949	
593	5.920	273.50494	149.81198	292.81573	274.70621	148.12224	157.25905	
594	5.930	273.50494	149.81198	292.81573	274.70847	148.14291	157.25156	
595	5.940	273.50494	149.81198	292.81573	274.69919	148.13396	157.26387	
596	5.950	273.50494	149.81198	292.81573	274.66824	148.15044	157.27373	
597	5.960	273.50052	149.81229	292.81821	274.71362	148.11211	157.26878	
598	5.970	273.50269	149.81215	292.81699	274.68283	148.13643	157.26929	
599	5.980	273.49612	149.81258	292.82068	274.66824	148.15044	157.27373	
600	5.990	273.48285	149.81346	292.82816	274.68140	148.13423	157.26373	
601	6.000	273.47839	149.81377	292.83066	274.67731	148.14590	157.26662	
602	6.010	273.48730	149.81316	292.82565	274.66440	148.15367	157.27412	
603	6.020	273.49811	149.81342	292.81812	274.67972	148.14073	157.27248	
604	6.030	273.49393	149.81273	292.82193	274.68637	148.14139	157.25954	
605	6.040	273.50494	149.81198	292.81573	274.65909	148.15474	157.26897	
606	6.050	273.49612	149.81258	292.82068	274.68521	148.13100	157.26331	
607	6.060	273.50494	149.81198	292.81573	274.66440	148.15367	157.27412	
608	6.070	273.50269	149.81215	292.81699	274.70239	148.12158	157.27002	
609	6.080	273.50052	149.81229	292.81821	274.66739	148.15356	157.27219	
610	6.090	273.50494	149.81198	292.81573	274.72119	148.10960	157.25745	
